<?xml version="1.0" encoding="UTF-8"?>
<!DOCTYPE svg PUBLIC "-//W3C//DTD SVG 1.1//EN" "http://www.w3.org/Graphics/SVG/1.1/DTD/svg11.dtd">
<svg xmlns="http://www.w3.org/2000/svg" version="1.1" width="200px" height="200px" style="shape-rendering:geometricPrecision; text-rendering:geometricPrecision; image-rendering:optimizeQuality; fill-rule:evenodd; clip-rule:evenodd" xmlns:xlink="http://www.w3.org/1999/xlink">
<g><path style="opacity:1" fill="#fefefe" d="M 95.5,9.5 C 116.503,9.33338 137.503,9.50004 158.5,10C 159.333,10.8333 160.167,11.6667 161,12.5C 161.667,22.1667 161.667,31.8333 161,41.5C 160.097,42.7014 158.931,43.5348 157.5,44C 149.173,44.4997 140.84,44.6664 132.5,44.5C 132.5,51.1667 132.5,57.8333 132.5,64.5C 141.839,64.3335 151.173,64.5002 160.5,65C 161.333,65.8333 162.167,66.6667 163,67.5C 169.724,92.409 173.891,117.742 175.5,143.5C 176.814,144.313 177.981,145.313 179,146.5C 179.667,159.833 179.667,173.167 179,186.5C 178.167,187.333 177.333,188.167 176.5,189C 125.167,189.667 73.8333,189.667 22.5,189C 21.6667,188.167 20.8333,187.333 20,186.5C 19.3333,173.167 19.3333,159.833 20,146.5C 24.2563,144.657 25.7563,141.657 24.5,137.5C 25.8763,115.154 29.3763,93.1543 35,71.5C 35.795,69.0988 36.9617,66.9321 38.5,65C 43.5,64.6667 48.5,64.3333 53.5,64C 56.535,60.6298 59.8683,57.6298 63.5,55C 73.8333,54.3333 84.1667,54.3333 94.5,55C 95.5536,56.3876 95.7203,57.8876 95,59.5C 92.5719,60.63 90.4053,62.13 88.5,64C 99.495,64.4998 110.495,64.6665 121.5,64.5C 121.5,57.8333 121.5,51.1667 121.5,44.5C 112.827,44.6664 104.16,44.4998 95.5,44C 94.6667,43.1667 93.8333,42.3333 93,41.5C 92.3333,31.5 92.3333,21.5 93,11.5C 93.9947,10.9341 94.828,10.2674 95.5,9.5 Z M 103.5,21.5 C 118.833,21.5 134.167,21.5 149.5,21.5C 149.5,25.1667 149.5,28.8333 149.5,32.5C 134.167,32.5 118.833,32.5 103.5,32.5C 103.5,28.8333 103.5,25.1667 103.5,21.5 Z M 64.5,60.5 C 70.8421,60.3338 77.1754,60.5005 83.5,61C 78.5833,67.0013 75.4166,73.8346 74,81.5C 72.9976,91.9494 73.4976,102.283 75.5,112.5C 69.4908,112.666 63.4908,112.499 57.5,112C 50.8404,97.5079 51.0071,83.0079 58,68.5C 60.0007,65.6693 62.1673,63.0026 64.5,60.5 Z M 45.5,76.5 C 46.675,76.281 47.675,76.6143 48.5,77.5C 45.4397,89.0497 46.1063,100.383 50.5,111.5C 49.0095,112.244 47.5095,112.91 46,113.5C 45.3333,114.5 45.3333,115.5 46,116.5C 53.2569,117.159 60.5902,117.492 68,117.5C 75.4098,117.492 82.7431,117.159 90,116.5C 90.6838,115.216 90.5171,114.049 89.5,113C 83.5305,113.366 80.3638,110.533 80,104.5C 78.3558,95.4091 78.8558,86.4091 81.5,77.5C 105.491,76.5003 129.491,76.1669 153.5,76.5C 159.196,98.4498 162.196,120.783 162.5,143.5C 120.5,143.5 78.5,143.5 36.5,143.5C 36.8053,120.768 39.8053,98.4346 45.5,76.5 Z M 109.5,90.5 C 120.822,91.1358 132.156,91.4692 143.5,91.5C 143.5,94.1667 143.5,96.8333 143.5,99.5C 132.167,99.5 120.833,99.5 109.5,99.5C 109.5,96.5 109.5,93.5 109.5,90.5 Z M 30.5,155.5 C 76.5,155.5 122.5,155.5 168.5,155.5C 168.814,163.087 168.481,170.587 167.5,178C 122.167,178.667 76.8333,178.667 31.5,178C 30.5192,170.587 30.1858,163.087 30.5,155.5 Z"/></g>
<g><path style="opacity:0.996" fill="#fefffe" d="M 104.5,85.5 C 119.17,85.3334 133.837,85.5001 148.5,86C 149.642,92.0844 149.809,98.2511 149,104.5C 134.241,105.657 119.408,105.823 104.5,105C 103.185,98.5003 103.185,92.0003 104.5,85.5 Z M 109.5,90.5 C 109.5,93.5 109.5,96.5 109.5,99.5C 120.833,99.5 132.167,99.5 143.5,99.5C 143.5,96.8333 143.5,94.1667 143.5,91.5C 132.156,91.4692 120.822,91.1358 109.5,90.5 Z"/></g>
<g><path style="opacity:1" fill="#fefffe" d="M 104.5,112.5 C 108.182,112.335 111.848,112.501 115.5,113C 116.833,114.333 116.833,115.667 115.5,117C 111.848,117.499 108.182,117.665 104.5,117.5C 104.5,115.833 104.5,114.167 104.5,112.5 Z"/></g>
<g><path style="opacity:1" fill="#fbfbfb" d="M 121.5,112.5 C 125.182,112.335 128.848,112.501 132.5,113C 133.833,114.333 133.833,115.667 132.5,117C 128.857,118.845 125.191,118.845 121.5,117C 120.272,115.51 120.272,114.01 121.5,112.5 Z"/></g>
<g><path style="opacity:1" fill="#fefffe" d="M 137.5,112.5 C 141.182,112.335 144.848,112.501 148.5,113C 149.833,114.333 149.833,115.667 148.5,117C 144.848,117.499 141.182,117.665 137.5,117.5C 137.5,115.833 137.5,114.167 137.5,112.5 Z"/></g>
<g><path style="opacity:1" fill="#fefffe" d="M 105.5,124.5 C 108.85,124.335 112.183,124.502 115.5,125C 116.554,126.388 116.72,127.888 116,129.5C 112.591,130.622 109.091,130.789 105.5,130C 104.248,128.172 104.248,126.339 105.5,124.5 Z"/></g>
<g><path style="opacity:1" fill="#fefffe" d="M 121.5,124.5 C 124.85,124.335 128.183,124.502 131.5,125C 133.211,126.133 133.711,127.633 133,129.5C 129.256,130.626 125.423,130.793 121.5,130C 120.248,128.172 120.248,126.339 121.5,124.5 Z"/></g>
<g><path style="opacity:1" fill="#fefffe" d="M 138.5,124.5 C 141.85,124.335 145.183,124.502 148.5,125C 149.554,126.388 149.72,127.888 149,129.5C 145.591,130.622 142.091,130.789 138.5,130C 137.248,128.172 137.248,126.339 138.5,124.5 Z"/></g>
<g><path style="opacity:1" fill="#fefffe" d="M 92.5,161.5 C 97.1785,161.334 101.845,161.501 106.5,162C 109.343,165.619 109.01,168.952 105.5,172C 101.5,172.667 97.5,172.667 93.5,172C 89.9351,168.784 89.6017,165.284 92.5,161.5 Z"/></g>
</svg>
